<?xml version="1.0" encoding="utf-8"?>
<!-- Svg Vector Icons : http://www.onlinewebfonts.com/icon -->
<!DOCTYPE svg PUBLIC "-//W3C//DTD SVG 1.1//EN" "http://www.w3.org/Graphics/SVG/1.1/DTD/svg11.dtd">
<svg version="1.1" xmlns="http://www.w3.org/2000/svg" xmlns:xlink="http://www.w3.org/1999/xlink" x="0px" y="0px" viewBox="0 0 1000 1000" enable-background="new 0 0 1000 1000" xml:space="preserve">
<metadata> Svg Vector Icons : http://www.onlinewebfonts.com/icon </metadata>
<g><path d="M538.7,500L981.9,56.8c10.8-10.8,10.8-27.9,0-38.7c-10.8-10.8-27.9-10.8-38.7,0L500,461.3L56.8,18.1C46,7.3,28.9,7.3,18.1,18.1S7.3,46,18.1,56.8L461.3,500L18.1,943.2c-10.8,10.8-10.8,27.9,0,38.7c10.8,10.8,27.9,10.8,38.7,0L500,538.7l443.2,443.2c10.8,10.8,27.9,10.8,38.7,0c10.8-10.8,10.8-27.9,0-38.7L538.7,500z"/></g>
</svg>